HIERARCHY
ROOT hip
{
  OFFSET 0 0 0
  CHANNELS 6 Xposition Yposition Zposition Zrotation Yrotation Xrotation
  JOINT abdomen
  {
    OFFSET 0 20.6881 -0.73152
    CHANNELS 3 Zrotation Xrotation Yrotation
    JOINT chest
    {
      OFFSET 0 11.7043 -0.48768
      CHANNELS 3 Zrotation Xrotation Yrotation
      JOINT neck
      {
        OFFSET 0 22.1894 -2.19456
        CHANNELS 3 Zrotation Xrotation Yrotation
        JOINT head
        {
          OFFSET -0.24384 7.07133 1.2192
          CHANNELS 3 Zrotation Xrotation Yrotation
          JOINT leftEye
          {
            OFFSET 4.14528 8.04674 8.04672
            CHANNELS 3 Zrotation Xrotation Yrotation
            End Site
            {
              OFFSET 1 0 0
            }
          }
          JOINT rightEye
          {
            OFFSET -3.6576 8.04674 8.04672
            CHANNELS 3 Zrotation Xrotation Yrotation
            End Site
            {
              OFFSET 1 0 0
            }
          }
        }
      }
      JOINT rCollar
      {
        OFFSET -2.68224 19.2634 -4.8768
        CHANNELS 3 Zrotation Xrotation Yrotation
        JOINT rShldr
        {
          OFFSET -8.77824 -1.95073 1.46304
          CHANNELS 3 Zrotation Xrotation Yrotation
          JOINT rForeArm
          {
            OFFSET -28.1742 -1.7115 0.48768
            CHANNELS 3 Zrotation Xrotation Yrotation
            JOINT rHand
            {
              OFFSET -22.5879 0.773209 7.07136
              CHANNELS 3 Zrotation Xrotation Yrotation
              JOINT rThumb1
              {
                OFFSET -1.2192 -0.487915 3.41376
                CHANNELS 3 Zrotation Xrotation Yrotation
                JOINT rThumb2
                {
                  OFFSET -3.37035 -0.52449 3.41376
                  CHANNELS 3 Zrotation Xrotation Yrotation
                  End Site
                  {
                    OFFSET -1.78271 -1.18214 1.43049
                  }
                }
              }
              JOINT rIndex1
              {
                OFFSET -7.75947 0.938293 5.60832
                CHANNELS 3 Zrotation Xrotation Yrotation
                JOINT rIndex2
                {
                  OFFSET -2.54057 -0.884171 1.56538
                  CHANNELS 3 Zrotation Xrotation Yrotation
                  End Site
                  {
                    OFFSET -1.62519 -0.234802 1.16502
                  }
                }
              }
              JOINT rMid1
              {
                OFFSET -8.24714 1.18213 3.41376
                CHANNELS 3 Zrotation Xrotation Yrotation
                JOINT rMid2
                {
                  OFFSET -3.10165 -0.590103 1.0647
                  CHANNELS 3 Zrotation Xrotation Yrotation
                  End Site
                  {
                    OFFSET -2.48547 -0.328903 0.83742
                  }
                }
              }
              JOINT rRing1
              {
                OFFSET -8.82822 0.546677 1.51678
                CHANNELS 3 Zrotation Xrotation Yrotation
                JOINT rRing2
                {
                  OFFSET -2.60934 -0.819778 -0.0198488
                  CHANNELS 3 Zrotation Xrotation Yrotation
                  End Site
                  {
                    OFFSET -2.33842 -0.294052 0.168128
                  }
                }
              }
              JOINT rPinky1
              {
                OFFSET -8.27202 -0.0477905 -0.4584
                CHANNELS 3 Zrotation Xrotation Yrotation
                JOINT rPinky2
                {
                  OFFSET -1.82734 -0.647385 -0.700984
                  CHANNELS 3 Zrotation Xrotation Yrotation
                  End Site
                  {
                    OFFSET -1.69225 -0.51767 -0.607171
                  }
                }
              }
            }
          }
        }
      }
      JOINT lCollar
      {
        OFFSET 2.68224 19.2634 -4.8768
        CHANNELS 3 Zrotation Xrotation Yrotation
        JOINT lShldr
        {
          OFFSET 8.77824 -1.95073 1.46304
          CHANNELS 3 Zrotation Xrotation Yrotation
          JOINT lForeArm
          {
            OFFSET 28.1742 -1.7115 0.48768
            CHANNELS 3 Zrotation Xrotation Yrotation
            JOINT lHand
            {
              OFFSET 22.5879 0.773209 7.07136
              CHANNELS 3 Zrotation Xrotation Yrotation
              JOINT lThumb1
              {
                OFFSET 1.2192 -0.487915 3.41376
                CHANNELS 3 Zrotation Xrotation Yrotation
                JOINT lThumb2
                {
                  OFFSET 3.37035 -0.52449 3.41376
                  CHANNELS 3 Zrotation Xrotation Yrotation
                  End Site
                  {
                    OFFSET 1.78271 -1.18214 1.43049
                  }
                }
              }
              JOINT lIndex1
              {
                OFFSET 7.75947 0.938293 5.60832
                CHANNELS 3 Zrotation Xrotation Yrotation
                JOINT lIndex2
                {
                  OFFSET 2.54057 -0.884171 1.56538
                  CHANNELS 3 Zrotation Xrotation Yrotation
                  End Site
                  {
                    OFFSET 1.62519 -0.234802 1.16502
                  }
                }
              }
              JOINT lMid1
              {
                OFFSET 8.24714 1.18213 3.41376
                CHANNELS 3 Zrotation Xrotation Yrotation
                JOINT lMid2
                {
                  OFFSET 3.10165 -0.590103 1.0647
                  CHANNELS 3 Zrotation Xrotation Yrotation
                  End Site
                  {
                    OFFSET 2.48547 -0.328903 0.83742
                  }
                }
              }
              JOINT lRing1
              {
                OFFSET 8.82822 0.546677 1.51678
                CHANNELS 3 Zrotation Xrotation Yrotation
                JOINT lRing2
                {
                  OFFSET 2.60934 -0.819778 -0.0198488
                  CHANNELS 3 Zrotation Xrotation Yrotation
                  End Site
                  {
                    OFFSET 2.33842 -0.294052 0.168128
                  }
                }
              }
              JOINT lPinky1
              {
                OFFSET 8.27202 -0.0477905 -0.4584
                CHANNELS 3 Zrotation Xrotation Yrotation
                JOINT lPinky2
                {
                  OFFSET 1.82734 -0.647385 -0.700984
                  CHANNELS 3 Zrotation Xrotation Yrotation
                  End Site
                  {
                    OFFSET 1.69225 -0.51767 -0.607171
                  }
                }
              }
            }
          }
        }
      }
    }
  }
  JOINT rButtock
  {
    OFFSET -8.77824 4.35084 1.2192
    CHANNELS 3 Zrotation Xrotation Yrotation
    JOINT rThigh
    {
      OFFSET 0 -1.70687 -2.19456
      CHANNELS 3 Zrotation Xrotation Yrotation
      JOINT rShin
      {
        OFFSET 0 -36.8199 0.73152
        CHANNELS 3 Zrotation Xrotation Yrotation
        JOINT rFoot
        {
          OFFSET 0.73152 -45.1104 -5.12064
          CHANNELS 3 Zrotation Xrotation Yrotation
          End Site
          {
            OFFSET -1.1221 -3.69964 12.103
          }
        }
      }
    }
  }
  JOINT lButtock
  {
    OFFSET 8.77824 4.35084 1.2192
    CHANNELS 3 Zrotation Xrotation Yrotation
    JOINT lThigh
    {
      OFFSET 0 -1.70687 -2.19456
      CHANNELS 3 Zrotation Xrotation Yrotation
      JOINT lShin
      {
        OFFSET 0 -36.8199 0.73152
        CHANNELS 3 Zrotation Xrotation Yrotation
        JOINT lFoot
        {
          OFFSET -0.73152 -45.1104 -5.12064
          CHANNELS 3 Zrotation Xrotation Yrotation
          End Site
          {
            OFFSET 1.1221 -3.69964 12.103
          }
        }
      }
    }
  }
}
MOTION
Frames:	5
Frame Time:	0.03333
16.273799999999998 78.3648 26.1231 -57.093716 84.454439 -51.238449 -0.42279 -0.692588 -0.022726 -0.693997 -9.75074 -1.527945 -13.447029 15.658323 -96.728 15.270329 14.085946 66.696975 -0.004646 0.0 -0.001855 0.001551 0.0 0.002006 4.230815 -44.38006 -8.574435 8.474808 16.569581 16.211632 9.37047 36.507377 31.575336 -10.674956 -6.345018 -3.510917 -89.135848 38.427249 50.29937 9.695582 -21.73745 23.652739 159.640512 -69.973031 102.396181 -9.363962 36.057704 5.927549 -0.220655 0.638273 0.122885 -7.302965 26.197633 6.0278 0.005437 1.771421 0.556241 10.555133 -5.706956 -0.765658 -139.225329 -4.396901 -136.390357 -160.752502 52.796176 -146.881766 14.148533 43.061482 -15.996781 152.528419 65.819056 -154.370068 149.267223 -7.740005 43.430927 -5.766875 -46.804846 2.640004 169.149219 -6.830138 -89.9174 -14.087058 -59.098206 -16.22493 62.079323 42.861388 -50.496626 67.643526 51.083905 -47.365352 -7.903303 -24.807728 3.013906 -2.74613 1.16919 -0.153394 0.014687 -1.323045 0.416576 -8.414231 20.631605 -2.928093 -26.84986 80.011966 -10.222261 148.514439 11.85574 142.788955 0.000494 0.000707 -0.000636 16.074941 -41.263483 11.002911 -39.201419 66.090301 178.514831 -95.83873 -28.328623 168.208261 0.003673 0.000707 0.001836 11.09769 -25.052066 101.006711 65.988007 12.342899 91.769309 -172.691586 1.541399 162.073413
17.4666 77.6369 28.8095 -66.133203 83.923981 -61.465912 0.538087 1.254785 0.010632 -0.405029 -10.165464 -1.270122 -10.11429 20.304422 -128.518356 12.078616 19.723827 98.410516 2.3e-05 -0.0 -0.000765 0.000785 0.0 0.002289 -155.41731 -2.951326 161.718854 -161.903263 -17.443952 178.255925 -2.34148 -0.629416 32.726988 -6.280372 -16.174761 -4.493826 -121.364978 30.330653 71.958825 -167.593627 -26.082253 77.169168 88.792083 -75.499211 40.049747 122.653142 -67.290777 61.612823 -36.035786 51.723432 29.831632 -88.57076 63.981622 80.472555 8.1e-05 0.063948 0.018921 7.440153 26.54433 4.025125 0.098826 0.25868 0.088917 2.49833 0.046456 0.033219 151.981232 14.727507 -157.3812 126.619308 -85.969064 146.462822 5.613403 -47.697591 -118.824775 6.09414 -12.754447 3.963945 -1.841584 -1.827483 0.254271 -63.524468 -79.693711 3.002646 8.571443 12.508875 -5.450327 -1.14708 12.127614 -2.132678 161.155178 -8.160454 -143.464758 162.179887 -1.466106 -142.587859 -0.000159 0.063745 -0.02024 -10.317164 0.112334 0.052097 141.244122 0.678495 138.263043 147.382598 11.845933 141.756023 179.992807 75.750803 0.007421 -165.068465 29.045014 97.076007 71.388532 10.026525 -159.510038 133.214792 38.215056 -63.159129 -179.99697 75.751019 -0.003126 -164.549939 50.732158 113.035099 58.6366 -10.359323 167.14241 -173.00955 62.240086 -98.970514
18.768 77.034 31.526300000000003 -63.474706 84.925547 -59.889096 -1.148427 2.682844 -0.0 0.462488 -10.908551 -0.611352 -13.342479 10.805482 -66.401088 14.76943 5.650293 37.563576 0.004772 -0.0 -0.002184 -0.000885 0.0 -0.001361 -0.273144 1.60674 0.361571 -137.435142 56.109511 142.762107 -156.489409 -72.778106 -130.069595 -5.778292 -16.214216 -4.379616 114.538537 -50.244968 55.721504 -17.614605 -51.180612 -29.418043 1.338174 -2.205442 -0.738568 5.252725 9.165361 1.273791 -82.839909 61.111434 74.532564 3.354187 0.21836 0.184928 0.000787 0.063886 0.019309 -155.41303 -1.038028 171.970935 -1.149245 -2.914327 -1.066404 -146.187175 8.155655 -142.828849 -3.783284 -33.886911 6.550296 -92.943876 -73.95286 -83.911318 19.198355 -5.644166 164.938245 -175.761301 -33.546192 -144.064432 174.192787 -11.8575 -89.871154 -3.658409 -57.57449 -8.435444 108.42855 34.161663 -91.743031 9.515806 24.730129 -0.45929 167.297992 -27.767517 -145.260448 -167.240809 -63.968952 -132.442108 145.119814 0.267981 179.211937 -12.112485 40.325608 4.411784 26.563013 -38.861491 25.605105 12.872324 -30.577393 14.892045 -179.991185 75.748338 -0.009095 -161.722155 26.803499 160.269619 62.169523 -56.830927 151.916428 49.663943 84.38733 32.189608 -179.996135 75.748157 -0.002644 -160.727093 55.286608 -0.0 8.575756 61.174572 130.134389 -70.193531 -33.11847 -152.024555
20.1078 76.7433 34.5727 -62.916595 87.617983 -59.291095 -1.82694 -0.026257 -90.05434 8.794826 -1.170178 89.368688 -1.136382 22.375092 178.725222 0.514964 22.224736 152.063798 0.004428 0.0 0.002174 0.004428 0.0 0.002174 -158.467944 -30.055498 166.920085 -160.006562 -5.508846 174.820833 -17.40371 -6.338431 26.809422 -0.309184 -34.406533 -4.802303 -5.434459 5.264565 1.078293 -103.028292 6.944257 94.260542 -166.821814 -43.973817 122.061524 145.781063 -67.205868 85.096447 -160.340192 -5.644555 143.087192 -85.911517 63.859664 77.761787 0.00074 0.063984 0.019106 11.035872 -12.236953 -1.532519 -86.171084 -50.468122 -84.540177 -145.460386 8.725445 -141.926829 85.537391 68.181627 -88.688841 170.001774 0.027436 -179.244568 -154.03407 22.101515 34.435516 29.112538 40.918479 -10.895146 173.771266 -11.439711 -89.891291 152.669216 4.459227 -80.133488 159.055071 -31.319667 -122.653241 -83.163259 -69.033007 -30.039746 -0.04803 -0.13859 0.025914 155.971303 15.618407 -139.903676 72.351709 72.973874 -90.218592 159.845414 1.862039 -176.019203 135.453744 -12.621005 132.839256 84.730931 -52.090936 84.602134 179.992804 75.748655 0.005921 -158.520971 28.946279 -10.397468 -26.471377 65.569503 -69.43911 69.065294 -67.001571 172.081855 -179.99601 75.749815 -0.00273 -158.081186 56.57053 -25.740682 -32.924494 41.986002 -29.461186 22.5204 -29.241198 84.305238
21.5921 76.59179999999999 38.0032 -131.376239 88.572 -126.907826 -5.138462 -3.752294 -180.0 -0.911334 6.109751 178.089722 2.777015 4.474855 48.905383 -6.596615 0.605458 -77.511373 0.003506 -0.0 -0.002451 -0.001596 -0.0 0.003356 -0.049333 0.292404 0.064682 3.81931 15.930095 14.774235 176.798781 10.256166 109.11609 -169.68813 8.789157 140.576108 -3.0313 2.963629 0.542894 -156.945351 -66.278478 115.759281 -27.422057 30.639616 20.097551 179.859496 -33.517322 107.766134 -36.035369 51.723842 29.830773 167.990555 -64.089608 133.005595 -145.117273 0.185183 -179.186893 -150.346095 -35.132258 -173.020639 -12.373235 -24.157903 -11.759243 -126.848825 -30.874516 -125.690515 143.298924 38.837162 -147.736714 128.653254 85.625845 -142.653545 99.024306 50.608901 113.508309 -16.84163 -64.910106 -4.006894 78.030581 38.689134 -42.412759 -176.290485 -47.344474 -76.260532 83.732948 42.329849 -69.989802 75.910523 52.703127 -54.148245 -3.622845 -11.074267 1.752443 -166.947826 -64.911991 -132.408401 0.000397 0.063804 -0.020307 156.118001 -13.745022 -173.482122 150.033278 28.965993 145.935845 -34.505433 74.592721 0.487603 -179.984586 75.750214 -0.010547 -157.757462 31.484494 0.0 13.183303 59.225549 -119.904557 90.183458 -70.55421 -167.529853 -0.004204 -0.000585 -0.002102 14.977514 -16.986951 -52.829491 -54.080542 6.916948 -21.938285 70.48398 -45.28793 145.370042
